<svg xmlns="http://www.w3.org/2000/svg" width="1240" height="620" viewBox="0 0 1240 620" role="img" aria-labelledby="title desc">
  <title id="title">Provider notification identity options</title>
  <desc id="desc">Conceptual comparison of current provider-first text and a supplementary provider attachment. Both retain the CodexBar sender icon.</desc>
  <defs>
    <filter id="shadow" x="-10%" y="-20%" width="120%" height="150%">
      <feDropShadow dx="0" dy="10" stdDeviation="18" flood-color="#07111f" flood-opacity="0.16"/>
    </filter>
    <linearGradient id="bg" x1="0" y1="0" x2="1" y2="1">
      <stop offset="0" stop-color="#eef5ff"/>
      <stop offset="1" stop-color="#f8f4ff"/>
    </linearGradient>
  </defs>
  <rect width="1240" height="620" fill="url(#bg)"/>
  <text x="70" y="72" fill="#172033" font-family="-apple-system, BlinkMacSystemFont, sans-serif" font-size="34" font-weight="700">Provider identity in macOS notifications</text>
  <text x="70" y="108" fill="#566078" font-family="-apple-system, BlinkMacSystemFont, sans-serif" font-size="18">Conceptual mock — exact media placement remains system controlled</text>

  <g transform="translate(70 155)">
    <text x="0" y="0" fill="#23704f" font-family="-apple-system, BlinkMacSystemFont, sans-serif" font-size="17" font-weight="700">RECOMMENDED · CURRENT CONTRACT</text>
    <rect x="0" y="25" width="520" height="235" rx="26" fill="#ffffff" filter="url(#shadow)"/>
    <rect x="26" y="52" width="58" height="58" rx="15" fill="#171b25"/>
    <path d="M42 72h26M42 82h19M42 92h24" stroke="#fff" stroke-width="5" stroke-linecap="round"/>
    <text x="105" y="67" fill="#687289" font-family="-apple-system, BlinkMacSystemFont, sans-serif" font-size="15" font-weight="600">CODEXBAR</text>
    <text x="105" y="98" fill="#172033" font-family="-apple-system, BlinkMacSystemFont, sans-serif" font-size="21" font-weight="700">Synthetic session depleted</text>
    <text x="105" y="128" fill="#566078" font-family="-apple-system, BlinkMacSystemFont, sans-serif" font-size="17">0% left. Will notify when available again.</text>
    <rect x="26" y="170" width="468" height="1" fill="#e6e9ef"/>
    <circle cx="43" cy="203" r="8" fill="#36a269"/>
    <text x="61" y="210" fill="#2b354b" font-family="-apple-system, BlinkMacSystemFont, sans-serif" font-size="16">Provider name remains authoritative and localized</text>
  </g>

  <g transform="translate(650 155)">
    <text x="0" y="0" fill="#9b6314" font-family="-apple-system, BlinkMacSystemFont, sans-serif" font-size="17" font-weight="700">OPTION · SUPPLEMENTARY ATTACHMENT</text>
    <rect x="0" y="25" width="520" height="235" rx="26" fill="#ffffff" filter="url(#shadow)"/>
    <rect x="26" y="52" width="58" height="58" rx="15" fill="#171b25"/>
    <path d="M42 72h26M42 82h19M42 92h24" stroke="#fff" stroke-width="5" stroke-linecap="round"/>
    <text x="105" y="67" fill="#687289" font-family="-apple-system, BlinkMacSystemFont, sans-serif" font-size="15" font-weight="600">CODEXBAR</text>
    <text x="105" y="98" fill="#172033" font-family="-apple-system, BlinkMacSystemFont, sans-serif" font-size="21" font-weight="700">Synthetic session depleted</text>
    <text x="105" y="128" fill="#566078" font-family="-apple-system, BlinkMacSystemFont, sans-serif" font-size="17">0% left. Will notify when available again.</text>
    <rect x="424" y="58" width="68" height="68" rx="17" fill="#edf0f7" stroke="#cfd5e1"/>
    <path d="M458 75l17 17-17 17-17-17z" fill="#6a5ce7"/>
    <text x="458" y="151" text-anchor="middle" fill="#7b8499" font-family="-apple-system, BlinkMacSystemFont, sans-serif" font-size="11">MEDIA?</text>
    <rect x="26" y="170" width="468" height="1" fill="#e6e9ef"/>
    <circle cx="43" cy="203" r="8" fill="#e1a536"/>
    <text x="61" y="210" fill="#2b354b" font-family="-apple-system, BlinkMacSystemFont, sans-serif" font-size="16">Still shows app icon; placement and size can vary</text>
  </g>

  <g transform="translate(70 475)">
    <rect width="1100" height="92" rx="22" fill="#172033"/>
    <text x="28" y="38" fill="#ffffff" font-family="-apple-system, BlinkMacSystemFont, sans-serif" font-size="18" font-weight="700">Public API boundary</text>
    <text x="28" y="66" fill="#c8d2e7" font-family="-apple-system, BlinkMacSystemFont, sans-serif" font-size="16">No per-notification sender-icon property. Attachments are media alongside content, not icon replacement.</text>
  </g>
</svg>
